<svg width="18" height="17" viewBox="0 0 18 17" fill="none" xmlns="http://www.w3.org/2000/svg">
<path fill-rule="evenodd" clip-rule="evenodd" d="M0.100098 8.2998C0.100098 8.4998 0.20011 8.6999 0.30011 8.8999C0.40011 9.0999 0.60011 9.2002 0.80011 9.2002H15.8001L11.8001 14.6001C11.7001 14.8001 11.6001 15.0002 11.6001 15.2002C11.6001 15.4002 11.7001 15.5998 11.8001 15.7998C11.9001 15.9998 12.1001 16.1001 12.3001 16.1001C12.5001 16.1001 12.6001 15.9998 12.8001 15.7998L17.9001 8.8999C18.0001 8.7999 18.0001 8.7001 18.0001 8.6001C18.0001 8.5001 18.0001 8.3998 18.0001 8.2998C18.0001 8.1998 18.0001 8.1 18.0001 8C18.0001 7.9 17.9001 7.8002 17.9001 7.7002L12.8001 0.799805C12.7001 0.699805 12.7001 0.700098 12.6001 0.600098C12.5001 0.600098 12.4001 0.5 12.4001 0.5C12.2001 0.5 12.1001 0.600195 11.9001 0.700195C11.8001 0.900195 11.7001 1.0998 11.7001 1.2998C11.7001 1.4998 11.8001 1.6999 11.9001 1.8999L15.9001 7.2998H0.900146C0.700146 7.2998 0.600146 7.4001 0.400146 7.6001C0.100146 7.9001 0.100098 8.0998 0.100098 8.2998Z" fill="#313131"/>
</svg>
