<?xml version="1.0" encoding="UTF-8" standalone="no"?>
<svg
   role="img"
   viewBox="0 0 20 19.878574"
   version="1.1"
   id="svg4925"
   sodipodi:docname="facebook.svg"
   width="20"
   height="19.878574"
   xmlns:inkscape="http://www.inkscape.org/namespaces/inkscape"
   xmlns:sodipodi="http://sodipodi.sourceforge.net/DTD/sodipodi-0.dtd"
   xmlns="http://www.w3.org/2000/svg"
   xmlns:svg="http://www.w3.org/2000/svg">
  <defs
     id="defs4929" />
  <sodipodi:namedview
     id="namedview4927"
     pagecolor="#ffffff"
     bordercolor="#000000"
     borderopacity="0.25"
     inkscape:showpageshadow="2"
     inkscape:pageopacity="0.0"
     inkscape:pagecheckerboard="0"
     inkscape:deskcolor="#d1d1d1"
     showgrid="false" />
  <title
     id="title4919">Facebook icon</title>
  <g
     fill="rgb(88, 112, 135)"
     id="g4923"
     style="fill:#ff0000"
     transform="scale(0.83339931)">
    <path
       d="M 23.9981,11.9991 C 23.9981,5.37216 18.626,0 11.9991,0 5.37216,0 0,5.37216 0,11.9991 0,17.9882 4.38789,22.9522 10.1242,23.8524 V 15.4676 H 7.07758 V 11.9991 H 10.1242 V 9.35553 c 0,-3.00727 1.7914,-4.66839 4.5322,-4.66839 1.3128,0 2.686,0.23435 2.686,0.23435 v 2.9529 h -1.513 c -1.4906,0 -1.9555,0.92494 -1.9555,1.87385 v 2.25086 h 3.3279 l -0.532,3.4685 h -2.7959 v 8.3848 c 5.7364,-0.9002 10.1242,-5.8642 10.1242,-11.8533 z"
       id="path4921"
       style="fill:#ff0000" />
  </g>
</svg>
