<?xml version="1.0" encoding="UTF-8" standalone="no"?>
<!-- Created with Inkscape (http://www.inkscape.org/) -->

<svg
   width="42.461006mm"
   height="9.7441864mm"
   viewBox="0 0 42.461006 9.7441864"
   version="1.1"
   id="svg5"
   xml:space="preserve"
   inkscape:version="1.2.1 (9c6d41e410, 2022-07-14)"
   sodipodi:docname="scarlet.svg"
   xmlns:inkscape="http://www.inkscape.org/namespaces/inkscape"
   xmlns:sodipodi="http://sodipodi.sourceforge.net/DTD/sodipodi-0.dtd"
   xmlns="http://www.w3.org/2000/svg"
   xmlns:svg="http://www.w3.org/2000/svg"><sodipodi:namedview
     id="namedview7"
     pagecolor="#ffffff"
     bordercolor="#000000"
     borderopacity="0.25"
     inkscape:showpageshadow="2"
     inkscape:pageopacity="0.0"
     inkscape:pagecheckerboard="0"
     inkscape:deskcolor="#d1d1d1"
     inkscape:document-units="mm"
     showgrid="false"
     inkscape:zoom="1.5055415"
     inkscape:cx="316.49742"
     inkscape:cy="1817.2863"
     inkscape:window-width="1920"
     inkscape:window-height="1011"
     inkscape:window-x="0"
     inkscape:window-y="32"
     inkscape:window-maximized="1"
     inkscape:current-layer="svg5"
     showguides="true"><sodipodi:guide
       position="19.534482,45.554298"
       orientation="0,-1"
       id="guide944"
       inkscape:locked="false" /><sodipodi:guide
       position="26.296729,37.754878"
       orientation="0,-1"
       id="guide946"
       inkscape:locked="false" /></sodipodi:namedview><defs
     id="defs2" /><g
     id="g546"
     style="fill:#ffffff"
     transform="translate(-68.50847,-61.657583)"><path
       d="m 77.158314,65.48731 q 0.509601,-0.509601 1.142741,-0.75668 0.648583,-0.262522 1.312608,-0.262522 0.664025,0 1.297166,0.262522 0.648582,0.247079 1.158183,0.75668 l 0.478716,0.478715 -0.957432,0.972875 -0.494158,-0.478716 q -0.308849,-0.308849 -0.69491,-0.463274 -0.386061,-0.154424 -0.787565,-0.154424 -0.401504,0 -0.787565,0.154424 -0.386061,0.154425 -0.69491,0.463274 -0.308849,0.293406 -0.463273,0.679467 -0.154425,0.386062 -0.154425,0.787565 0,0.401504 0.154425,0.787565 0.154424,0.386061 0.463273,0.69491 0.617698,0.617698 1.482475,0.617698 0.416946,0 0.803007,-0.154425 0.386061,-0.154424 0.679468,-0.463273 l 0.494158,-0.478716 0.957432,0.972874 -0.478716,0.478716 q -0.509601,0.509601 -1.158183,0.772123 -0.633141,0.247079 -1.297166,0.247079 -0.664025,0 -1.312608,-0.247079 -0.63314,-0.262522 -1.142741,-0.772123 -0.509601,-0.509601 -0.75668,-1.142741 -0.247079,-0.63314 -0.247079,-1.297165 0,-0.679468 0.247079,-1.312608 0.247079,-0.633141 0.75668,-1.142741 z"
       style="font-weight:normal;font-size:10px;line-height:0.47;font-family:REZ;-inkscape-font-specification:REZ;letter-spacing:0.171335px;white-space:pre;fill:#ffffff;stroke-width:0.399999"
       id="path655" /><g
       id="g725"
       transform="translate(-6.3249855,0.167003)"
       style="fill:#ffffff"><path
         d="m 103.1739,64.27022 v 1.374378 h -0.69491 q -0.43239,0 -0.81845,0.169867 -0.37062,0.154424 -0.66403,0.447831 -0.27796,0.277964 -0.44783,0.664025 -0.15442,0.370619 -0.15442,0.803007 v 3.474551 h -1.389817 v -3.474551 q 0,-0.725795 0.26252,-1.343493 0.27796,-0.63314 0.756677,-1.096413 0.47872,-0.478716 1.11186,-0.741238 0.63314,-0.277964 1.34349,-0.277964 z"
         style="font-weight:normal;font-size:10px;line-height:0.47;font-family:REZ;-inkscape-font-specification:REZ;letter-spacing:0.171335px;white-space:pre;fill:#ffffff;stroke-width:0.399999"
         id="path657" /><path
         d="m 103.85542,61.49058 h 1.37438 v 9.713299 h -1.37438 z"
         style="font-weight:normal;font-size:10px;line-height:0.47;font-family:REZ;-inkscape-font-specification:REZ;letter-spacing:0.171335px;white-space:pre;fill:#ffffff;stroke-width:0.399999"
         id="path659" /><path
         d="m 111.43972,68.763972 0.97287,0.972874 -0.47872,0.478716 q -0.49415,0.494158 -1.1273,0.75668 -0.63314,0.262522 -1.32805,0.262522 -0.69491,0 -1.32805,-0.262522 -0.63314,-0.262522 -1.12729,-0.75668 -0.50961,-0.509601 -0.75668,-1.142741 -0.24708,-0.648583 -0.24708,-1.312608 0,-0.664025 0.24708,-1.297166 0.24707,-0.63314 0.75668,-1.142741 0.5096,-0.5096 1.14274,-0.756679 0.64858,-0.262522 1.3126,-0.262522 0.66403,0 1.29717,0.262522 0.64858,0.247079 1.15818,0.756679 l 0.47872,0.478716 -3.84517,3.84517 q 0.58681,0.293406 1.2354,0.200751 0.66402,-0.108097 1.15818,-0.602255 z m -3.44367,-2.486234 q -0.6177,0.617698 -0.6177,1.482475 0,0.478716 0.2162,0.911104 0.18531,-0.185309 0.55592,-0.555928 0.38607,-0.386061 0.80301,-0.803007 0.43239,-0.432388 0.81845,-0.81845 0.4015,-0.386061 0.6177,-0.602255 -0.58681,-0.293407 -1.25084,-0.200752 -0.64858,0.09265 -1.14274,0.586813 z"
         style="font-weight:normal;font-size:10px;line-height:0.47;font-family:REZ;-inkscape-font-specification:REZ;letter-spacing:0.171335px;white-space:pre;fill:#ffffff;stroke-width:0.399999"
         id="path661" /><path
         d="m 117.29446,69.829501 v 1.374378 h -0.67947 q -0.71035,0 -1.34349,-0.262522 -0.63314,-0.277964 -1.11186,-0.75668 -0.47872,-0.478716 -0.75668,-1.111856 -0.26252,-0.63314 -0.26252,-1.343493 V 61.49058 h 1.37438 v 4.16946 h 2.77964 v 1.374378 h -2.77964 v 0.69491 q 0,0.432389 0.15442,0.81845 0.16987,0.386061 0.44783,0.679468 0.29341,0.277964 0.67947,0.44783 0.38606,0.154425 0.81845,0.154425 z"
         style="font-weight:normal;font-size:10px;line-height:0.47;font-family:REZ;-inkscape-font-specification:REZ;letter-spacing:0.171335px;white-space:pre;fill:#ffffff;stroke-width:0.399999"
         id="path663" /></g><path
       d="m 74.762665,64.468108 v 1.374378 h -4.184903 q -0.293406,0 -0.494158,0.200752 -0.200752,0.200751 -0.200752,0.494158 0,0.293406 0.200752,0.509601 0.200752,0.200751 0.494158,0.200751 h 2.779641 q 0.432388,0 0.803007,0.169867 0.386061,0.154425 0.664025,0.432389 0.293407,0.277964 0.447831,0.664025 0.169867,0.370619 0.169867,0.803007 0,0.432389 -0.169867,0.81845 -0.154424,0.370619 -0.447831,0.664025 -0.277964,0.277964 -0.664025,0.447831 -0.370619,0.154425 -0.803007,0.154425 h -4.169461 v -1.374378 h 4.169461 q 0.308849,0 0.5096,-0.200752 0.200752,-0.200752 0.200752,-0.509601 0,-0.293406 -0.200752,-0.494158 -0.200751,-0.200752 -0.5096,-0.200752 h -2.779641 q -0.432388,0 -0.818449,-0.154424 -0.370619,-0.169867 -0.648583,-0.447831 -0.277964,-0.293407 -0.447831,-0.664025 -0.154425,-0.386062 -0.154425,-0.81845 0,-0.432389 0.154425,-0.803007 0.169867,-0.386061 0.447831,-0.664026 0.277964,-0.277964 0.648583,-0.432388 0.386061,-0.169867 0.818449,-0.169867 z"
       style="font-weight:normal;font-size:10px;line-height:0.47;font-family:REZ;-inkscape-font-specification:REZ;letter-spacing:0.171335px;white-space:pre;fill:#ffffff;stroke-width:0.399999"
       id="path653" /><path
       id="path785-9-62"
       style="fill:#ffffff;fill-opacity:1;stroke-width:0.349982"
       inkscape:transform-center-x="-0.45062316"
       inkscape:transform-center-y="-1.3346829"
       d="m 87.650981,63.994543 a 1.0693036,1.0693036 0 0 0 -0.926042,0.534852 l -2.915068,5.047237 a 1.0692946,1.0692946 0 0 0 0.925525,1.604036 l 2.499073,5.17e-4 v -0.86558 c -0.575954,-0.01161 -1.133145,-0.01128 -1.727544,-0.140043 -0.114199,-0.02475 -0.168212,-0.158912 -0.08578,-0.271302 0.384609,-0.506843 0.726301,-0.987715 1.054716,-1.44849 -0.153339,-0.01685 -0.308491,-0.04227 -0.467155,-0.08113 -0.08769,-0.0215 -0.130303,-0.138322 -0.06821,-0.236161 0.614456,-0.93487 1.090202,-1.780781 1.634525,-2.57452 0.01992,-0.02904 0.04885,-0.04373 0.07751,-0.04393 0.02867,-1.9e-4 0.05701,0.01408 0.07596,0.04393 0.02934,0 0.145442,0.228443 0.167432,0.263033 0.05697,0.08963 0.114309,0.180108 0.172599,0.271818 0.123526,0.194257 0.250108,0.393489 0.379822,0.597379 0.279497,0.439327 0.574284,0.902131 0.885217,1.39113 0.02201,0.03459 0.04471,0.07153 0.05271,0.114205 0.01542,0.08249 -0.02997,0.16975 -0.09147,0.17725 -0.185565,0.02264 -0.342318,0.04325 -0.483691,0.06098 0.328604,0.447097 0.667926,0.908653 1.033011,1.405599 0.02921,0.03972 0.05982,0.08221 0.0708,0.131258 0.02132,0.0948 -0.03661,0.195005 -0.116789,0.203605 -0.822897,0.08868 -1.244698,0.148413 -1.732194,0.154513 v 0.84646 l 2.498556,5.17e-4 a 1.0693041,1.0693041 0 0 0 0.926042,-1.604037 l -2.913518,-5.04827 a 1.0693036,1.0693036 0 0 0 -0.926041,-0.534852 z" /></g></svg>
