<svg width="25" height="19" viewBox="0 0 25 19" fill="none" xmlns="http://www.w3.org/2000/svg">
<path fill-rule="evenodd" clip-rule="evenodd" d="M0 2.59961C0.2 1.89961 0.500037 1.2998 1.10004 0.799805C1.60004 0.399805 2.3 0.0996094 3 0.0996094H21.3C22 0.0996094 22.7 0.299805 23.2 0.799805C23.7 1.1998 24.1 1.89961 24.3 2.59961L12.2 10.1997L0 2.59961ZM0 4.3999V15.4995L8.90002 9.8999L0 4.3999ZM10.3 10.8999L0.300049 17.1997C0.500049 17.6997 0.900024 18.1995 1.40002 18.4995C1.90002 18.7995 2.5 18.9995 3 18.9995H21.3C21.9 18.9995 22.4 18.7995 22.9 18.4995C23.4 18.1995 23.8 17.6997 24 17.1997L14 10.8999L12.1 12.0996L10.3 10.8999ZM15.5 9.99951L24.4 15.5996V4.49951L15.5 9.99951Z" fill="#F5F5EF"/>
</svg>
