<?xml version="1.0" encoding="UTF-8" standalone="no"?>
<svg
   role="img"
   viewBox="0 0 19.999996 21.50823"
   version="1.1"
   id="svg4925"
   sodipodi:docname="facebook.svg"
   width="19.999996"
   height="21.50823"
   xml:space="preserve"
   xmlns:inkscape="http://www.inkscape.org/namespaces/inkscape"
   xmlns:sodipodi="http://sodipodi.sourceforge.net/DTD/sodipodi-0.dtd"
   xmlns="http://www.w3.org/2000/svg"
   xmlns:svg="http://www.w3.org/2000/svg"
   xmlns:rdf="http://www.w3.org/1999/02/22-rdf-syntax-ns#"
   xmlns:cc="http://creativecommons.org/ns#"
   xmlns:dc="http://purl.org/dc/elements/1.1/"><defs
     id="defs4929" /><sodipodi:namedview
     id="namedview4927"
     pagecolor="#ffffff"
     bordercolor="#000000"
     borderopacity="0.25"
     inkscape:showpageshadow="2"
     inkscape:pageopacity="0.0"
     inkscape:pagecheckerboard="0"
     inkscape:deskcolor="#d1d1d1"
     showgrid="false" /><title
     id="title4919">Facebook icon</title><path
     style="fill:#ffffff;stroke-width:0.0420729"
     d="M 3.1016312,21.46518 C 1.89038,21.233725 0.90793876,20.493082 0.37438406,19.409161 0.08150886,18.81419 0.00171766,18.462473 3.2764336e-5,17.759011 -9.0333566e-4,17.325209 0.01809876,17.09793 0.07256476,16.896519 c 0.1284626,-0.475092 0.2811415,-0.832463 0.4967903,-1.1628 0.68723984,-1.052745 1.74679514,-1.66962 2.96971924,-1.728968 0.9245261,-0.04489 1.721418,0.190342 2.4406905,0.720396 l 0.2629534,0.193778 V 9.1999506 c 0,-5.409839 0.00374,-5.720219 0.073627,-5.741959 0.040485,-0.01264 3.1028666,-0.790452 6.8052678,-1.728471 3.702405,-0.93802496 6.764777,-1.71594196 6.805272,-1.72871096296 0.06993,-0.022039997 0.0736,0.35510100296 0.07307,7.52116096296 -4.68e-4,7.1917284 -0.0042,7.5621154 -0.07886,7.9237824 -0.57734,2.797233 -3.865044,3.959345 -6.095211,2.154495 -0.55134,-0.4462 -1.070549,-1.266606 -1.257475,-1.986951 -0.108336,-0.41749 -0.107241,-1.398911 0.0019,-1.809128 0.273672,-1.027495 0.938554,-1.888433 1.850775,-2.396522 1.280694,-0.713314 2.965717,-0.584056 4.102752,0.314714 l 0.214371,0.169453 V 8.7984856 c 0,-1.70133 -0.0079,-3.093324 -0.01755,-3.093324 -0.04428,0 -11.1498501,2.825096 -11.1808155,2.844229 -0.019283,0.01194 -0.035243,2.1647024 -0.035384,4.7839454 -1.966e-4,3.100218 -0.015633,4.857698 -0.044183,5.035731 C 7.228439,19.814202 6.1112451,21.023085 4.6576247,21.4017 4.2317001,21.512639 3.5049812,21.54228 3.1014805,21.46518 Z"
     id="path5124" /><metadata
     id="metadata5126"><rdf:RDF><cc:Work
         rdf:about=""><dc:title>Facebook icon</dc:title></cc:Work></rdf:RDF></metadata></svg>
