<?xml version="1.0" encoding="UTF-8" standalone="no"?>
<!DOCTYPE svg PUBLIC "-//W3C//DTD SVG 20010904//EN"
              "http://www.w3.org/TR/2001/REC-SVG-20010904/DTD/svg10.dtd">

<svg xmlns="http://www.w3.org/2000/svg"
     width="1.07778in" height="0.288889in"
     viewBox="0 0 97 26">
  <path id="prius"
        fill="red" stroke="none" stroke-width="1"
        d="M 90.75,26.00
           C 88.27,26.00 86.24,25.52 84.61,23.73
             84.61,23.73 87.15,21.03 87.15,21.03
             87.99,21.92 89.47,22.23 90.77,22.23
             92.34,22.23 93.09,21.68 93.09,20.69
             93.09,20.28 93.00,19.94 92.77,19.68
             92.57,19.46 92.22,19.29 91.70,19.22
             91.70,19.22 89.75,18.93 89.75,18.93
             88.31,18.71 87.22,18.20 86.49,17.41
             85.74,16.58 85.38,15.43 85.38,13.95
             85.38,10.82 87.61,8.52 91.29,8.52
             93.61,8.52 95.36,9.10 96.75,10.57
             96.75,10.57 94.25,13.23 94.25,13.23
             93.23,12.14 91.88,12.22 91.18,12.22
             89.79,12.22 89.22,13.06 89.22,13.81
             89.22,14.03 89.29,14.34 89.54,14.61
             89.75,14.82 90.09,15.04 90.66,15.11
             90.66,15.11 92.61,15.40 92.61,15.40
             94.07,15.62 95.11,16.10 95.79,16.83
             96.66,17.72 97.00,19.00 97.00,20.59
             97.00,24.09 94.16,26.00 90.75,26.00M 76.97,26.00
           C 73.60,26.00 70.85,23.59 70.85,19.82
             70.85,19.82 70.85,8.67 70.85,8.67
             70.85,8.67 74.83,8.67 74.83,8.67
             74.83,8.67 74.83,19.72 74.83,19.72
             74.83,21.32 75.65,22.23 76.97,22.23
             78.28,22.23 79.15,21.32 79.15,19.72
             79.15,19.72 79.15,8.67 79.15,8.67
             79.15,8.67 83.13,8.67 83.13,8.67
             83.13,8.67 83.13,19.82 83.13,19.82
             83.13,23.59 80.33,26.00 76.97,26.00M 63.87,8.67
           C 63.87,8.67 67.85,8.67 67.85,8.67
             67.85,8.67 67.85,25.86 67.85,25.86
             67.85,25.86 63.87,25.86 63.87,25.86
             63.87,25.86 63.87,8.67 63.87,8.67 Z
           M 55.27,12.46
           C 55.27,12.46 53.02,12.46 53.02,12.46
             53.02,12.46 53.02,15.93 53.02,15.93
             53.02,15.93 55.27,15.93 55.27,15.93
             56.36,15.93 57.00,15.09 57.00,14.19
             57.00,13.30 56.36,12.46 55.27,12.46
             55.27,12.46 55.27,12.46 55.27,12.46 Z
           M 57.23,25.85
           C 57.23,25.85 54.36,19.46 54.36,19.46
             54.36,19.46 53.02,19.46 53.02,19.46
             53.02,19.46 53.02,25.85 53.02,25.85
             53.02,25.85 49.04,25.85 49.04,25.85
             49.04,25.85 49.04,8.67 49.04,8.67
             49.04,8.67 55.45,8.67 55.45,8.67
             59.05,8.67 60.98,11.37 60.98,14.19
             60.98,16.54 59.61,18.01 58.34,18.69
             58.34,18.69 61.84,25.85 61.84,25.85
             61.84,25.85 57.23,25.85 57.23,25.85 Z
           M 41.01,12.46
           C 41.01,12.46 38.76,12.46 38.76,12.46
             38.76,12.46 38.76,15.93 38.76,15.93
             38.76,15.93 41.01,15.93 41.01,15.93
             42.10,15.93 42.74,15.09 42.74,14.19
             42.74,13.30 42.10,12.46 41.01,12.46
             41.01,12.46 41.01,12.46 41.01,12.46 Z
           M 41.20,19.72
           C 41.20,19.72 38.76,19.72 38.76,19.72
             38.76,19.72 38.76,25.85 38.76,25.85
             38.76,25.85 34.78,25.85 34.78,25.85
             34.78,25.85 34.78,8.67 34.78,8.67
             34.78,8.67 41.20,8.67 41.20,8.67
             44.79,8.67 46.72,11.37 46.72,14.19
             46.72,17.02 44.79,19.72 41.20,19.72M 0.00,-0.00
           C 0.00,-0.00 26.10,-0.00 26.10,-0.00
             26.10,-0.00 26.10,8.60 26.10,8.60
             26.10,8.60 0.00,8.60 0.00,8.60
             0.00,8.60 0.00,-0.00 0.00,-0.00 Z
           M 26.10,25.87
           C 26.10,25.87 17.42,25.87 17.42,25.87
             17.42,25.87 17.42,0.00 17.42,0.00
             17.42,0.00 26.10,0.00 26.10,0.00
             26.10,0.00 26.10,25.87 26.10,25.87 Z" />
</svg>
